<svg width="69" height="69" viewBox="0 0 69 69" fill="none" xmlns="http://www.w3.org/2000/svg">
<mask id="mask0_11_54" style="mask-type:luminance" maskUnits="userSpaceOnUse" x="0" y="0" width="69" height="69">
<path d="M69 0H0V69H69V0Z" fill="white"/>
</mask>
<g mask="url(#mask0_11_54)">
<path fill-rule="evenodd" clip-rule="evenodd" d="M36.9643 0H32.0357V21.8223L23.8609 1.58901L19.2912 3.43529L27.6778 24.1927L11.8473 8.36228L8.36232 11.8473L23.5351 27.0201L3.87231 18.4292L1.89908 22.9456L22.7046 32.0357H0V36.9643H22.7046L1.89909 46.0544L3.87231 50.5708L23.5351 41.9799L8.36232 57.1527L11.8473 60.6375L27.6778 44.8072L19.2912 65.5648L23.8609 67.4109L32.0357 47.1777V69H36.9643V47.1777L45.1391 67.4109L49.7086 65.5648L41.3224 44.8072L57.1527 60.6375L60.6375 57.1527L45.4648 41.9799L65.1277 50.5708L67.1008 46.0544L46.2956 36.9643H69V32.0357H46.2952L67.1008 22.9456L65.1277 18.4292L45.4648 27.0201L60.6375 11.8473L57.1527 8.36228L41.3224 24.1927L49.7086 3.43529L45.1391 1.58901L36.9643 21.8223V0Z" fill="#D2D2D2"/>
</g>
</svg>
