<svg xmlns="http://www.w3.org/2000/svg" viewBox="0 0 900 350" width="900" height="350" style="width:100%;height:100%"><defs><clipPath id="a"><path d="M0 0h900v350H0z"/></clipPath></defs><g clip-path="url(#a)"><g display="block"><path fill="#ECECEB" d="M52.7979889-.00099945L8.87599181 37.80000305l37.4940033 50.65599823 82.9449997 2.90699959 63.9679985-31.98499966 31.52600193 1.98900032 15.14999962 52.95299816 113.24599933 8.56900025 13.00800324.91800308-22.03600312 19.74300003 62.28400422-16.52900314 24.17999267 1.83600235 42.08500671-73.61100006L389.6269989 6.7330017l-127.01800346 9.9469986-34.73900032 32.90300179-29.99499893-4.8959999L178.1329956 9.18200301 52.79798889-.00099945z"/><path fill="#DDDDDC" d="M415.7970047 51.7260003l-8.5699997-13.62100028-8.56999969 14.2340002 17.13999939-.61299991z"/><path fill="#FFF" d="M365.29499435 36.72799683l-18.36400032 56.625L398.503994 108.5039978l1.99000168-13.92700004 6.7329998-56.47099877-41.93200112-1.37800216z"/><path fill="#F4D75D" d="M350.91099358 32.4430008v48.51499938l34.58599948 2.1400013 4.28399945-52.95000076-38.86999893 2.29500007z"/><path fill="#B58B00" d="M355.80699158 67.33599949l24.94400024.3050003-.15200043 2.6029997-24.79199981-.30700017V67.3359995zm-.15299988-21.88399983l24.79199982.30599976-.15399933 2.60099983-24.79100037-.30599975.15299988-2.60099984zm0 7.34599972l24.79199982.3050003v2.602l-24.79199982-.30599999v-2.6010003zm.15299988 7.19200015l24.79199981.30699992-.15299987 2.7540002-24.79199982-.30600024.15299988-2.75499988z"/><path fill="#CCAD14" d="M402.48297977 62.89900303l1.53000021 3.97900009-4.7430005 1.22399998 2.75400018 13.16099953 12.24300003-.91799998.30600024 5.51000023-11.32500029.76499987.91900015 4.74399948 5.35600007-.45899964.30599999 4.28499985 5.81500018-.91899967-1.0710001-3.82499981 4.89700031-.30700016-.46000004-15.45600009-13.46600032 1.52900004-.91799998-5.20300006 11.01800013-1.98900032-1.6830001-4.74399949-5.81500005 1.52999974-.153-3.97799969-5.5100001 1.0710001z"/><g><path fill="#2B2B2B" d="M50.80799484 61.52099943L79.73199368 76.5189991l23.26099967-2.44799995 18.822999 3.2140007L137.272995 57.08299923 61.82699203 46.9819994l-9.18299865 2.75500011-1.83599854 11.78399992z" opacity=".1"/><path fill="#755800" d="M101.30999064 68.25400043l6.88600016-2.44800008s-5.35600006-3.82499993-5.66200018-3.97800004c-.30699992 1.53100002-1.22399998 6.42600012-1.22399998 6.42600012zM71.92699099 56.47000027l7.03999996-2.60199994s-5.50899995-3.8250001-5.66299987-3.97799999c-.45900011 1.52999997-1.3770001 6.57999993-1.3770001 6.57999993z"/><path fill="#CCAD14" d="M137.27299404 57.08199997L136.81399345 49.737l-3.21399974-4.89600039-11.47699976 2.29400063-7.3460002 8.7229997v8.4180001l1.68300057 4.8970003 20.81299972-12.09100036z"/><path fill="#9E7700" d="M136.35399246 44.22800064l-21.57800054 11.63100004-7.65099955-1.37800026-3.36700058-3.51999998 9.4880004-7.19199991 12.24300002-2.60200024 10.86500025 3.06100035z"/><path fill="#755800" d="M123.95899224 42.085001l-16.37599969 8.57099985 7.19299937 3.36699987 17.75299978-9.64199996-8.56999946-2.29599977z"/><path fill="#8F8F8F" d="M118.60199356 30.9130001l3.67399979 5.5090003-18.51799965 14.53900004-4.74400044-6.4280002-1.3779993-5.04999996 10.4069997-7.04000044 10.5589999-1.52999973z"/><path fill="#E5C828" d="M93.65799153 23.5680008l24.94499957 7.34600019-20.9659996 8.57000017-13.31299972-2.75500011L72.53899193 30.455001l21.1189996-6.8870002z"/><path fill="#CCAD14" d="M60.44899178 35.19799864l12.09000015-4.74400007-2.44900012 7.95800018-5.50899995-.61199999-4.13200008-2.60200012z"/><path fill="#B58B00" d="M116.45999527 69.17199898L61.82599449 46.98199964l-1.37800026-11.78399969 6.88800049 1.52999974 5.20199966-6.27399922 25.09800053 9.02999878 6.1210003 11.47700048 11.01900004 4.898 1.68400002 13.31299925z"/><path fill="#F4D75D" d="M136.8139906 49.73600066l-4.74500013 3.2140001-.7650001-5.96800005 5.05000018-2.75400007.46000004 5.50800002zM121.05099368 52.4909997l.61199999 6.2750001-6.12100005 3.82700014-.7650001-6.73500014 6.27400016-3.3670001z"/><path fill="#737373" d="M99.62599468 49.58300018l-3.82600021-8.41600007-11.32500003-3.9789999-.458 6.12099992 15.60900024 6.27400005zM82.02699447 36.42199993l-8.11099983-3.06099987-4.74400043 4.28600001 12.70200014 4.74400008.15300012-5.96900022z"/><path fill="#856400" d="M98.24898803 56.92999887c-2.60199988 0-4.13199985 2.60199976-3.51999986 5.81499985.45899963 3.06100008 3.06099987 5.66299984 5.50899988 5.66299984 2.60199994 0 4.13299984-2.60199976 3.51999993-5.66299984-.45900011-3.21300009-3.05999995-5.81499985-5.50899995-5.81499985z"/><path fill="#E5C828" d="M98.86098805 60.75399947c-.91800001 0-1.377.76699996-1.224 1.99100001.30599999 1.07199996 1.07099997 1.98900001 1.98999997 1.98900001.91800002 0 1.377-.91700005 1.22400001-1.989-.306-1.22400006-1.07199997-1.99100002-1.98999998-1.99100002z"/><path fill="#856400" d="M68.86599243 44.99200249c-2.60199988 0-4.13199985 2.60299968-3.51999986 5.81599977.61299991 3.06100008 3.06099987 5.66399977 5.66299986 5.66399977 2.44799996 0 3.97899986-2.60299969 3.51899982-5.66399977-.61199999-3.21300009-3.21299982-5.81599977-5.66199982-5.81599977z"/><path fill="#E5C828" d="M69.47799245 48.81799865c-.76500002 0-1.377.76600003-1.07100001 1.99.153 1.07200003.91799998 1.99000002 1.836 1.99000002.91799994 0 1.37799998-.91799999 1.22399994-1.99000001-.153-1.22399998-1.07099992-1.99000001-1.98899993-1.99000001zM130.69299507 33.51399899l-15.3029995 6.88800048-9.79500007 11.32400036 19.89499998-10.56000042 9.79299974-8.8760004-4.59000015 1.22399998z"/><path fill="#CCAD14" d="M115.69498849 41.3189999l-10.09999967 10.40699993-1.83699989-.76500034 11.17199945-11.17199957 19.12999964-8.72299994 1.22399998 1.22399998-19.58899951 9.02899995z"/><path fill="#A3A3A3" d="M136.35399532 44.22800064l-5.05000007-8.26499987-1.2240001 1.0719998 4.89700008 7.95799994 1.3770001-.76499987z"/></g><g><path fill="#FFF" d="M264.29198837 38.56400108l48.66600037-2.7539997 2.29399872 48.97200012-46.980999.6119995-3.97900009-46.82999992z"/><path fill="#DDDDDC" d="M269.03598404 43.61499977l.76499939 4.59100056 39.02400017-2.90699959-.15299988-4.74400043-39.63599968 3.05999946zm.76499939 9.18300104l3.52000046 27.54700041 37.3409996.30599976-1.07099915-30.60800076-39.79000091 2.7550006z"/><path fill="#A3A3A3" d="M279.28898335 58.00099993l7.03900003-1.07099962 2.14299989 3.36799955-3.36699987 3.824 4.5909999 1.37900002-1.98799997 9.02899985-7.49900031-.91899967.15299987-3.21400022 4.74300051.30600023.46000004-2.9070003-5.66300058-1.83599988 4.28600025-5.66200003-4.43799973.76300001-.46000003-3.05999994zm14.53900003-1.2249999l-3.0600001 5.96999978 1.83599988 10.40500021 7.49799991.46000004 1.0720005-7.03900015h-2.90800047l-.45899963 4.13100016-2.29500008-.45800018-1.37700009-6.58099997 1.98900008-3.52100027 2.44799996 3.97900021-.30600024 2.45000005h2.90800047l.45899964-3.2140001-3.06099987-5.96899987-4.74399996-.61299992z"/><g><path fill="#A3A3A3" d="M305.76398373 68.71400166l3.21400022-3.21400023 4.13300002 1.68400002-2.75600016 5.20299959-4.59100008-3.67299938zm4.28500032-5.66300035l7.34599996-15.30399966 6.42700028 4.28499985-9.48700029 12.70300006-4.28599995-1.68400025z"/></g></g></g><g display="block"><path fill="#CCAD14" d="M220.82900238 153.65198839l-1.68400001-2.449-6.7329999-.91799999-8.8749999 4.74399996v4.74399996l3.97799968-.76499987 7.34500027-3.97900009 3.3670001.61199999 2.60199976-1.98899996z"/><path fill="#9E7700" d="M219.14700186 151.20298839l-.91900003 4.43799996 4.43900001.91799998.76499999-4.74399996-4.28499997-.61199998z"/><path fill="#CCAD14" d="M232.61400318 173.08798862l-.46000004-3.06099997-5.66100001-3.67200008-11.01999974.61100007-1.0710001 4.13300001 3.82599974 1.07099998 8.41800022-.45899999 2.75400018 2.14200008 3.21399975-.7650001z"/><path fill="#9E7700" d="M232.15400279 170.0269878l-2.755 3.82499998 3.67299998 2.60299998 2.755-4.13300001-3.67299998-2.29499996z"/></g><g display="block"><path fill="#ECECEB" d="M79.88399506 288.02000618L0 308.06800628l130.69199371 41.93200135 251.12999726-27.69900131-87.22999573-37.34199906-81.71999931-13.6210022-132.98800087 16.68200112z"/><path fill="#DDDDDC" d="M158.69699669 146.1520052l-106.0529995 6.27399969 51.42000008 16.98799944 78.50699806-4.43899966 20.96500015-9.94700002-44.8389988-8.87599945z"/><path fill="#2B2B2B" d="M61.52000046 327.81000328l96.41199875.76600075 51.26699829-31.06799984-129.31499863-9.48799992-79.88499832 20.04799988 61.5209999 19.74199913z" opacity=".1"/><path fill="#DDDDDC" d="M158.08499908 268.42999077l223.73699952 53.87100029 19.89500427-41.0150013-243.63200379-12.855999zM655.44997406 350.00001144l244.5510025-43.76900172-29.53600311-25.71000027-213.79000092-25.25100136-1.22499847 94.73000335z"/><path fill="#C4C4C4" d="M401.71800232 281.28699493l-17.29299927 41.16600037 282.5019989 27.54700089 4.13200379-95.03600312-269.34100342 26.32300186z"/><path fill="#2B2B2B" d="M403.09503174 281.1330061l84.62699127 18.97600078 83.55800247-22.03800078-28.4640007-10.55799989-139.72099304 13.61999989zm417.93798828 10.86499977l-160.38099289-4.89699936-55.09200144-25.71000004 51.26700068-5.05000114 164.20599365 35.65700054z" opacity=".1"/><path fill="#C4C4C4" d="M512.82200718 212.87699604l-69.78400135 5.20300007 59.83700144 17.1409998 61.97700155-12.39599992-52.03000164-9.94799995z"/><path fill="#8F8F8F" d="M455.12599373 243.02599525l-3.06099987 23.26300002 3.21499967 14.07799959 10.86500025-1.52899933 5.20300007-31.6800003-6.7340002-4.89699937-9.48799992.7649994z"/><path fill="#A3A3A3" d="M537.76397419 245.47398949l7.65300035 33.36200046 11.3250003 2.45099926 2.14099978-6.4279995-5.96799993-30.3029995-15.1510005.91799928zM443.0370121 218.08000183l-4.74400139 59.68600083 16.98700142 2.60099983 5.50899983-34.89199972 20.50599956 3.3670001 2.60099983 36.2689991 18.97800064 3.52100181 7.95700074-37.18900096-7.95700074-22.64999974-59.83699989-10.71300125z"/><path fill="#8F8F8F" d="M502.87402725 228.79300308v59.84000015l13.00799942-2.1439991 4.74399948-36.26900005 29.68800068-3.52000046 6.7340002 34.27999974 14.23199845-2.9090004-6.42700004-55.24599838-61.97899819 5.9679985z"/><path fill="#ECECEB" d="M528.12400055 0L369.27400208 350h2.60199737L530.72599792 0h-2.60199737z"/><path fill="#A3A3A3" d="M101.15600586 180.89300156l6.88700104 96.25999832 87.5359993-6.7329979 8.56999969-7.19400024 21.730999-85.85300064-23.87400056-8.72399902-100.84999847 12.24399948z"/><path fill="#8F8F8F" d="M88.45400238 229.25199938l-10.55999947 41.93400144 30.14899922 5.96699906 7.19299984-5.20299912-4.13299942-84.3240013-22.64900017 41.62599992z"/><path fill="#CCAD14" d="M23.26099992 292.6099987l-3.36699987-.45900058-.76500034-6.58099962 6.73500025-12.24299979 3.36699999-.76500034.91800022 2.44900036-6.42900026 11.01899981.76500003 4.59099984-1.22400002 1.98900032zM40.70600027 279.60199404l.30799997 9.64199996-3.0620001 3.36699986-.15299988 2.75499964 3.05999998.15200043 3.97999999-4.28499985-.15299988-9.9460001-1.6830001-2.75500011-2.29699998 1.07000017z"/><path fill="#B58B00" d="M35.044999 273.63298988l-3.8260001 9.6420002 3.3660001 1.68400002 2.90800008-6.73500014-2.44800008-4.59100008z"/><path fill="#CCAD14" d="M69.78399944 280.21499777l5.50900019 9.02799976-2.29499996 4.2859999 1.37699997 3.21300029 2.449-1.53000021 3.06000018-7.19199994-5.66200017-8.72399995-3.51999999-.91800022-.91800022 1.83700037z"/><path fill="#8F8F8F" d="M25.86299896 273.3279934l5.6619997-48.97200013 33.05600071 1.68300057 2.60199929 36.2709999-15.9159999 21.57900048-25.4039998-10.56100083z"/><path fill="#A3A3A3" d="M51.2669983 283.88799667l28.31199979-5.6630001 13.46699953-49.43199921-28.4659996-2.75499916-13.31299973 57.84999847z"/><path fill="#A3A3A3" d="M31.52500153 224.35500431l-10.25300026-35.197999 24.94500005-.46100044 28.92299998 17.44799947-12.24199963 27.08799983-31.37300014-8.87699986z"/><path fill="#C4C4C4" d="M59.8369999 200.17499542l3.06000137 33.05599976 50.04199981-7.34499932-1.83600044-38.26000022-18.97500038-3.67300034-32.29100037 16.22200012z"/><path fill="#C4C4C4" d="M52.644001 152.42699432l-31.37200164 36.7290001 38.56500137 11.019001 25.71000016-18.97700071 15.60900115-18.97600031-48.51200103-9.79500008z"/><path fill="#DDDDDC" d="M101.15600395 162.22099876l-41.31900024 37.95399857 51.26599884-12.54899931 3.2140007-13.31400013-13.1609993-12.09099913z"/><path fill="#9E7700" d="M19.8940003 292.15200686l4.592-1.52999997.61199999 4.59099996-4.74499989 1.5300001-.4590001-4.59100009zM37.95299923 292.61100125l2.90800012 2.90699997-3.06200011 3.06099997-3.06000011-2.44799996 3.2140001-3.51999998zM72.99799687 293.52900457l3.82599991 1.6830001-1.8369999 4.13100003-4.13199996-1.83500003 2.14299995-3.9790001z"/><path fill="#C4C4C4" d="M101.15600586 162.22100067l9.9469986 25.40500069 114.77700042-10.25400067-22.34399795-22.3430004-42.69600153-1.99100018-35.65799856 7.50000095-24.02600098 1.68299961z"/><path fill="#8F8F8F" d="M122.42800343 191.14599943l-1.83600008 2.29599977 1.22399997 5.9690001 1.98900008 1.5289998 4.28500009-6.4269998-5.66200006-3.36699987z"/><path fill="#737373" d="M120.59199864 193.44099498l-2.29600007 2.75499989 3.52000007 3.21399997 2.75500003-3.67299998-3.97900003-2.29599988z"/><path fill="#8F8F8F" d="M140.02699852 189.61700058l-1.83599997 1.83599997.91799999 5.96800017 1.52999997 1.68299985 4.592-5.66199994-5.20399999-3.82500005z"/><path fill="#737373" d="M138.19099379 191.45200467l-2.44900012 2.60199997 3.3670001 3.36599997 2.75500011-3.82599998-3.6730001-2.14199996z"/><path fill="#8F8F8F" d="M158.08500576 188.54499722l-1.99 2.44900012.91799997 5.04900002 1.83700002 1.8369999 3.67299997-5.66199983-4.43799996-3.67300021z"/><path fill="#737373" d="M156.09599245 190.99300528l-1.83700002 2.1420001 2.755 2.90800009 2.449-3.2140001-3.36699998-1.8360001z"/><path fill="#8F8F8F" d="M175.5319966 187.01300001l-1.837 2.14299989 1.37699997 5.20300007 1.68400001 1.68299985 3.36699999-5.20299995L175.5319966 187.013z"/><path fill="#737373" d="M173.6950066 189.1559956l-1.83700012 2.144 3.2140001 3.06 2.29600013-3.21399998-3.6730001-1.99000001z"/><path fill="#C4C4C4" d="M97.48300362 92.58899689l31.83099937-1.2250023 10.4070015 31.98600174-14.53900147 37.18800187-49.58300018-9.48800087 21.88400078-58.46100044z"/><path fill="#DDDDDC" d="M83.86299896 110.18899775l22.80200005.4590001 3.97900009 7.49800015-14.07900026 3.3670001-13.92700026-4.2850002 1.22500038-7.03900015z"/><path fill="#A3A3A3" d="M85.08699894 125.49200058l-2.44900036-8.26499987 28.00600052.91799975-3.67300034 7.6539998-21.88399982-.30699968z"/><path fill="#C4C4C4" d="M78.96600032 101.92399883l9.18299985 15.45699978-6.73399973 2.75500012-6.88700009-1.2249999-7.34499979-15.9159999 11.78299976-1.0710001z"/><path fill="#8F8F8F" d="M70.39699936 133.44999695l-.46000004-10.71299982 7.19199991-5.81500006 11.01899958.45900011-5.81499958 15.7619996-11.93599987.30700017z"/><path fill="#8F8F8F" d="M61.06000137 118.45199957l6.12199986-15.45600023 9.94799984 13.92600023-6.73399985 16.52800024-9.33599985-14.99800024z"/><path fill="#C4C4C4" d="M199.8640076 102.38299942l8.57000004 14.38600016-6.27400016 2.5999999-6.42799998-1.22300005-6.8869996-14.84499979 11.0189997-.91800022z"/><path fill="#A3A3A3" d="M191.75200272 131.91900206l-.30600071-10.10000015 6.5800004-5.35600018 10.40700006.30600023-5.50900006 14.84399986-11.1719997.30600024z"/><path fill="#8F8F8F" d="M183.03000689 117.84000061l5.81500005-14.53900001 9.18300009 13.16200006-6.2750001 15.45599997-8.72300004-14.07900002z"/><path fill="#C4C4C4" d="M181.49999237 111.4119978h5.96800005l4.28500021 6.73300004-5.8150002 2.14500021-5.9690002-2.60200011 1.53100014-6.27600014z"/><path fill="#A3A3A3" d="M179.96899223 117.68799639l11.7840004.45800018-3.21400023 7.03999996-8.57000017-7.49800014z"/><path fill="#DDDDDC" d="M129.31399536 91.3639946l-4.13199997 69.1740036 78.35399628-5.51000214-31.37199831-62.13399887-42.849998-1.5300026z"/><path fill="#8F8F8F" d="M119.36800194 276.38900185l-39.78899956 1.83600044.91799927 26.6289997 36.57600021 7.49900056 4.89699936-17.90500035-2.60199928-18.05900035z"/><path fill="#A3A3A3" d="M212.87200546 271.33800888l-3.67300033 26.1699996-92.1269989 14.84499979-1.37800217-30.9130001 43.00300074-8.2649994 54.17500066-1.83699989z"/><path fill="#C4C4C4" d="M204.14900589 263.22700787l8.72300339 8.11099994-97.17800331 10.10099995-36.11600304-3.21399975 2.75500488-10.1010003 32.90199852 3.8270001 88.91399956-8.72399994z"/><path fill="#2B2B2B" d="M756.29897356 331.94099426l62.28499937-11.17200035-58.4589994-13.16099983-51.11399865 10.86599982 47.28799868 13.46700036z" opacity=".1"/><path fill="#C4C4C4" d="M808.94396973 0L669.68196869 22.80199432 658.9699707 256.79899597l162.06300354 35.19898987 9.48899842-47.28899384-8.41799927-213.33599853L808.94396973 0z"/><path fill="#9DA1A2" d="M808.94401932 0l12.0890026 291.99798584 49.43099976-11.47698975 18.210001-249.14800262L808.94401931 0z"/><path fill="#A3A3A3" d="M682.22998428 37.80099487l38.7179997.76500702 40.55399966 7.19299317 7.34600067 195.27799987-57.69400024 9.02900696-33.36100006-1.37700653 4.43700027-210.88800049z"/><path fill="#CECECD" d="M765.9410057 39.17700195l-12.09000015 7.6519928 5.96899987 193.28800202 21.2709999 9.18299865 22.34399987-4.59199524-8.26399994-203.38800049-29.22999954-2.14299774z"/><path fill="#8F8F8F" d="M753.8519888 46.82999802l-71.62100125-9.02899957L794.4059906 21.42599869l.76499939 19.89399957-41.3190012 5.50999976z"/><path fill="#DDDDDC" d="M677.79302597 248.6879921l82.02599907-8.5699997 43.61599922 4.5909996 1.07099915 28.00600052-126.71299744-24.02700042z"/><path fill="#F4D75D" d="M764.87002087 65.19399643l-17.60000039 3.67399979-12.54699993 84.7840004 19.58799982-.15299989 10.5590005-88.3050003z"/><path fill="#CCAD14" d="M777.72501373 68.71399689l-12.8560009-3.52099991 10.25300074 88.76399994 24.48700094-1.98899842-21.88400078-83.25400161z"/><path fill="#E5C828" d="M757.67800999 168.189003l-5.20400048-14.69000245 12.39500028-88.30400086 13.92700023 88.45700074-3.51900006 13.77199936-17.59899997.7650032z"/><path fill="#E5C828" d="M756.2999897 229.8650055l-21.57800007-76.2140007 19.58900023-.15299989 11.171 79.12200165-9.18200016-2.75500107z"/><path fill="#BF8F00" d="M799.60798264 151.96699905l-24.1789999 77.59199906-9.947999 3.06000137 9.64199924-78.66199875 24.48499966-1.99000168z"/><path fill="#CCAD14" d="M752.47400951 153.49800491l13.00800026 79.12200165 13.31400025-78.96800232-26.3220005-.15399933z"/><path fill="#ECECEB" d="M765.02297217 139.57100487L752.47297192 153.498005l12.70200026 14.38500014 13.62000024-14.23200013-13.77200025-14.08000014z"/><path fill="#C4C4C4" d="M726.15198135 243.63900566l-.15400123 6.12099983 42.23800087 6.58099984 1.22599983-2.75499988-2.14299965-4.28499997-17.75300074-5.20300019-23.41399908-.45899963z"/><path fill="#A3A3A3" d="M793.79299927 243.63900566h-18.21100044l-8.26399994 5.66199982.91800022 7.03999985 27.39400005-5.35699982-1.8369999-7.34499985z"/><path fill="#DDDDDC" d="M759.81898487 237.97500038l-33.66799915 5.6630001 41.16699934 5.66300012 26.47499895-5.66300011-33.97399914-5.6630001z"/><path fill="#CCAD14" d="M758.90002346 242.566998l6.58099997-9.94800043 3.36699998 6.88600028-3.21399998 4.13400018-6.73399997-1.07200003z"/><path fill="#BF8F00" d="M772.98101807 242.566998l-7.34599996 1.07200003-.15400004-11.02000046 7.5 9.94800043z"/><path fill="#E5C828" d="M751.0960207 81.87599993l-17.59899998-8.72400046 3.67299986 9.33600045 13.92600012-.612z"/><path fill="#CCAD14" d="M751.09598541 81.8759973l-12.54899955-1.5300002-4.89600014 1.37800002v5.96800017l17.4449997-5.81599999z"/><path fill="#F4D75D" d="M733.4980205 73.15199709l-5.20299992 7.80699998 5.35499993 6.73299998 4.89799985-7.34599998-5.04999985-7.19399998zM773.74498272 80.19200134l17.60000038-9.02900028-3.51999998 9.33600044-14.0800004-.30700016z"/><path fill="#E5C828" d="M773.74600887 80.19300294l12.55000043-1.83599997 5.04999995 1.37699986.15299988 5.81500006-17.75300026-5.35599995z"/><path fill="#CCAD14" d="M791.34498584 71.16300297l5.35600007 7.19299984-5.20300007 7.19299984-5.20300007-7.19299984 5.05000007-7.19299984z"/><path fill="#8F8F8F" d="M132.0700016 249.60700274l63.355999-6.12299967-1.22399903 4.89699983-61.36700058 5.8169998-.76499939-4.59099996zm1.3769989 9.33599996l59.53100014-5.66300002-1.22500038 4.74299994-57.54099846 5.51099968-.7650013-4.5909996z"/></g><g display="block"><path fill="#2B2B2B" d="M633.4119873 307.14799476l47.90000105 15.1519997 40.4020009-11.17199968-32.59700107-11.78500009-55.70500088 7.80500007z" opacity=".1"/><path fill="#B58B00" d="M656.21498775 251.28999615l3.21399975 26.32299995 10.25300038 6.12100124 9.79399955-5.81500053 3.36700058-14.8450005-5.05000019-11.78400016-14.23199987-2.75400067-7.3460002 2.75400067z"/><path fill="#856400" d="M656.2149868 251.2899952l20.9659996-2.60199977 34.12599946 4.89799977-13.92599965 8.87599992-14.53799986.612-26.62799955-11.78399993z"/><path fill="#B58B00" d="M711.30698586 253.58599472l-1.07000065 24.94400024-9.33599973 4.43799973-12.85500026-4.74400043-5.20300007-15.14999962 28.4640007-9.48799992z"/><path fill="#4F5253" d="M710.08299065 308.83299446l-.76500035-8.2650001-7.19300008-4.43700004-6.58000016 3.82599998-4.89800024 8.87600016 9.79500041.91799975 9.64100042-.91799975zM675.4969883 305.31199694l-.15200043-8.26399994-7.34699965-3.3670001-6.12100005 2.90800023-11.32400012 8.7229998 12.54800012 1.3790002 12.39600013-1.3790002z"/><path fill="#474747" d="M675.4969883 305.3119948h-24.94400025v2.75600003h24.94400025v-2.75600004zM710.08298588 308.83299482h-19.28199959v3.21399999h19.28199959v-3.214z"/><path fill="#9E7700" d="M709.31798363 300.56799603l-13.773-.61100007-7.49900032-21.7329998 22.19000054.30700016-.91800022 22.0369997zM675.34498835 297.04899406l-13.46900034-.45900058-2.44699955-18.97700024 20.04599952.30600071-4.12999963 19.13000011z"/></g><path fill="#C4C4C4" d="M644.43099308 217.1640017l8.72299954-24.02899956 9.48699954 22.8029995-7.34499955 17.90699958-9.79499984-7.03999996-1.06999969-9.64099956z" display="block"/><g display="block"><path fill="#A3A3A3" d="M634.63600922 236.1410017l-4.74399948-5.20300007.76499938-5.66299987 13.77300025-8.1099999 10.8659997 16.68099977-20.65999985 2.29500007z"/><path fill="#7F5D4E" d="M612.90500832 236.14100218l5.66199994-3.52099991h8.7229998l2.29600001 3.98000002-7.49899983 8.87599993-9.3349998-3.36699987.15299988-5.96800017z"/><path fill="#A27E6E" d="M614.4360075 226.4990015l10.55900001 1.98899985 2.29400015 4.13199997-3.977 2.44899988-10.10100006-5.35699988 1.2249999-3.21299982zM602.95800781 238.13000202l9.94600013-1.98799991 9.18200013 9.33500003-13.00800013.15100003-6.12000013-7.49800015z"/><g><path fill="#ECECEB" d="M630.65700817 225.27400112l3.9790001 10.8670001-5.0500001.45900012-4.5920001-8.112 5.6630001-3.21400022z"/></g></g><g display="block"><path fill="#DDDDDC" d="M674.12099147 185.63699913l-3.67400003 4.8959999.15199995 10.71400023 2.90899992 6.12200022 3.52000022.30599976 8.41700006-16.9880004-7.80500007-6.42799997-3.51900005 1.37800026z"/><path fill="#8F8F8F" d="M675.19099224 191.91099858l-2.14200008-4.74399972 4.59100008-2.90799999 4.59100008 3.82599974-3.97800005 4.13199997 2.60099995 7.80600023-4.59199994 6.88599968-2.75400001-.61100006-1.68300009-7.1949997 3.36600006-7.19200015z"/><path fill="#C4C4C4" d="M666.62099218 183.18799877l3.21399999 2.6040001 1.68299985 4.8959999 4.28499985 15.91600037-6.73299969-2.75399971-10.4069997-11.4780004 7.9579997-9.18400026z"/><path fill="#CECECD" d="M656.21499157 251.29099655l20.6600008 1.07100296 5.04899979-19.89400196-6.1220007-25.86499977-15.15099954-14.38499928 5.96899998-9.03000259-13.4660002 9.94800186 3.06099987 58.15499878z"/><path fill="#C4C4C4" d="M712.68499184 219.91800022l-1.37800026 33.66900158-34.43200112-1.22500229-.30599975-6.73399925-.76599884-39.02400017 13.92699909-12.85499954 7.04000008-9.94800186 17.29299915 6.27400207-9.18299961 18.67099953 7.80500126 11.17199993z"/><path fill="#CECECD" d="M696.76999187 183.79999828l-3.5220003 12.85600043-17.4460001 9.94800043 7.34600019-14.3860004 5.50999999-5.66199994 8.11200022-2.75600052z"/><path fill="#ECECEB" d="M677.79399014 184.4119991l5.35400009 7.80599988 13.62199974-8.41799974-2.90899992-3.51999998-8.87599993.15299987-7.19099998 3.97899998zM671.51899117 190.68699884l6.274-6.27399987-5.50999998-4.43999987-3.51900007.30800008-2.14299989 2.9059999 3.67199993 5.81599999 1.22600001 1.68399977z"/><path fill="#858686" d="M673.81399083 242.72099753l2.75399996-3.21500011 3.21399998 3.0630001-3.21399998 3.05900012-2.75399996-2.90700011zM673.6609912 230.62999737l2.60200005-3.2140001 3.21200007 3.2140001-3.05800006 2.90800011-2.75600007-2.9080001z"/></g><g display="block"><path fill="#593E35" d="M666.00902176 169.566998l2.75500011 10.71399975 9.02899969 4.13199997 9.79400027-2.60199976 3.5199995-2.29500007-3.82699966-7.0409999-21.27099991-2.90799999z"/><path fill="#7F5D4E" d="M684.52702236 174.61799622l3.05999994 7.19299888 6.27399993-1.52999878 11.32499957-18.5180006-2.29599952-14.38699985 1.22599983-23.4139998-3.67399979-4.13299941-3.21399998 2.90799904-3.67400009 2.90699959-9.94599956 41.78200149.91899967 7.19199944z"/><path fill="#593E35" d="M705.18701991 161.76199722l-4.74400004-8.26399994h7.34599995l1.37600017 1.99000001-3.97800008 6.27399993z"/><path fill="#A27E6E" d="M646.4210205 164.51799583l38.10499955 10.10099984 12.70100021-51.88099861-11.3239994-5.35700036-32.29100037 3.06099892-7.19099998 44.07600021z"/><path fill="#4F5253" d="M726.61202145 131.00199509l-17.44700003 24.48600006-1.22400022-4.28499985-11.32500004-3.06000042.61100006-25.40499973 17.29500007 1.98999977 12.09000016 6.27400017z"/><path fill="#737373" d="M697.22802067 122.73799562l29.38400078 8.26399947-12.39700032-24.94599915-13.00800037 7.4989996-3.9790001 9.18300008z"/><path fill="#4F5253" d="M648.25701904 104.5259962l5.35500145 15.9159999 43.61499977 2.296-28.61700058-12.08999991-20.35300064-6.12199998z"/><path fill="#8F8F8F" d="M714.21502113 106.05599618l-16.9869995 16.68199992-20.6590004-16.06899989-8.87599946-12.8549999 46.52199936 12.24199987z"/><path fill="#737373" d="M667.69301987 93.81299591l29.53499984 28.9260006-48.97200012-18.21200037 19.43700028-10.71400023z"/><path fill="#A27E6E" d="M703.80902195 140.6429944l-3.3670001 12.85599995 8.72200012 1.98999977 3.82800007-12.08999967-9.18300009-2.75600005z"/><path fill="#593E35" d="M705.95202184 144.77499485l3.36599993.76600015-4.8959999 4.74400008 1.52999997-5.51000023z"/><path fill="#7F5D4E" d="M654.53202057 128.8589964l6.57899988.91899966 3.36699974 1.6840005 1.07200003 5.3549999-4.28599978 9.94800007-6.73199987-17.90600014zM669.52802086 148.6019969l1.07099962-11.17299986 2.908-4.28399992 5.51000022-.15299988 7.3449998 2.14199972-16.83399964 13.46799994z"/><path fill="#AA8D80" d="M661.26502085 146.76499462l3.3659997 1.68400002 4.89700007.15199947 3.97899985-15.45699978-9.0289998-1.68299961-3.21299982 15.3039999z"/><path fill="#593E35" d="M664.47902036 150.1309942l-3.21399999-3.36599994 8.26399994 1.83599997-5.04999995 1.52999997z"/><path fill="#474747" d="M654.5320201 128.8579964l6.27400004-.91800004 3.67200005 3.52200008-9.9460001-2.60400004zM673.5080204 133.14399686l5.81500006-1.836 7.03900003 3.82599998-12.85400009-1.98999998z"/><path fill="#593E35" d="M658.20401955 153.49899912l2.44800043 8.72399998 9.02999997 2.44799995 7.95800042-7.95799994-19.43600082-3.214z"/><path fill="#FFF" d="M660.50002098 155.33499312l13.15999985 2.29599999-2.1409998 2.44799997-9.94799995-1.989-1.0710001-2.75499996z"/><path fill="#2B2B2B" d="M656.82802031 137.12399459c1.224 0 2.2950001 1.0710001 2.2950001 2.1430001 0 1.22299996-.9180001 2.2950001-2.1430001 2.2950001-1.22299996 0-2.2950001-1.07200014-2.2950001-2.2950001 0-1.072.9180001-2.1430001 2.1430001-2.1430001zM675.65102027 141.40799499c1.22500004 0 2.14199998.9180001 2.14199998 2.1430001.15300011 1.22299995-.91699994 2.2950001-2.14199998 2.2950001-1.225 0-2.1430001-1.07200015-2.1430001-2.2950001 0-1.225.9180001-2.1430001 2.1430001-2.1430001z"/></g><path fill="#CECECD" d="M702.73700047 225.42699814l9.94699955-5.50900078 1.37800025-29.84300041-28.92399978 24.48700046 4.89700031 8.26399994 12.70199967 2.60100079z" display="block"/><g display="block"><path fill="#A3A3A3" d="M668.6109848 215.48000383l16.3749997 19.58999968 17.75099975-9.64199972-26.93499946-18.82399988-4.43700028 1.68400001-2.7539997 7.19199991z"/><path fill="#ECECEB" d="M664.01998425 210.58300221l4.58999979 4.89599979 7.1919998-8.87499976-3.82499982-3.8269999-3.82599997 1.53099966-4.1309998 6.27500021z"/><path fill="#7F5D4E" d="M660.65198374 192.21800327l1.37800026 6.73499978 9.9460001 3.8260001-5.0500002-11.32600022-6.27400016.76500034z"/><path fill="#A27E6E" d="M660.6519847 192.21800327l11.32500028 10.56099963-7.95900011 7.8049996-7.1910001-1.98999978-3.52100027-10.25399994-8.87599945.30599999-.4590006-4.43799973 16.68100024-1.98999977z"/></g><g display="block"><path fill="#4F5253" d="M507.15796757 166.04700804l6.2740002-2.60199976 7.1940002 17.29400015-6.2750002 2.60199976-7.1930002-17.29400015z"/><path fill="#858686" d="M525.06296825 161.76200867l-27.23999977 11.32500016.15299988 14.53900016 31.83099938-12.55000016-4.74399949-13.31400016z"/><path fill="#6F7173" d="M497.9759674 187.62600851l7.80500031 1.68400002 29.2290001-10.86600018-3.36600018-4.13199997h-3.21399975l-30.45400047 13.31400013z"/><path fill="#4F5253" d="M526.89996767 194.81900835l-6.2750001-14.079-6.27500009 2.60099984 5.96800008 14.53900003 3.97899995 1.53000021 2.60300016-4.59100008z"/><path fill="#6F7173" d="M525.06296873 161.76200867h3.2140001l4.436.30700016 2.296 16.37699985-6.58000004-4.13399982-3.36600006-12.5500002z"/></g><g display="block"><path fill="#E5C828" d="M539.14196396 188.8500061l27.85299969 2.75399971 13.61999988 52.79899979 3.52000046 8.72200012-45.9109993-.3050003-11.019001 2.29599952v-8.57099914l11.93700027-57.6949997z"/><path fill="#BF8F00" d="M526.89996529 194.81900692l12.24199962-5.96900082 5.6619997 34.2820015h-6.73299956l-7.4979999-16.06900072-3.67299986-12.24399996zM527.20596313 246.5460062l34.27899981-20.65999984 19.89400053 5.6619997 4.13299942 22.0380001.33600044 7.6930008-30.48300022-4.32700062-26.61899906 2.02200031-1.84600067-6.61299991.30599975-5.81500054z"/><path fill="#CCAD14" d="M589.64396381 216.85600662l-2.75500011 5.81499958-5.50999981 8.87699986-6.73300022-12.70199967-3.21399975-17.90699958 2.60300016-6.7329998 6.42699979 2.44999885 9.18199994 20.20000076zM518.48296452 224.66100597l-8.8760004-21.57800006 17.29300045-8.2649994 11.17100024 28.31299973-7.19200039 5.50899887-12.3959999-3.97899914z"/><path fill="#B58B00" d="M574.03496456 194.20500612l-7.03999996-2.60199976v17.60099984l.09599972 6.65899944 2.15000033 19.32899952 12.54399991-1.31599808-5.76200008-23.75400066-1.98799992-15.9170003z"/></g><g display="block"><path fill="#9E7700" d="M522.46197128 116.15600824l-10.10100019-10.71299982-14.07900011 11.32600022 11.32600015.76599979 12.85400015-1.37900019z"/><path fill="#BF8F00" d="M498.28197098 116.76800823l-20.81200028 17.1420002 29.84100008-11.17299986 15.1510005-6.58099985-24.1800003.61199951z"/><path fill="#755800" d="M477.4699707 133.90800953l38.41200066-2.75400019 6.57999992-14.99800062-44.99200058 17.7520008z"/></g><g display="block"><path fill="#DFBDA5" d="M591.17495728 136.35700607l.45800018 22.03799987-2.75499725 20.96599984-17.59900094 4.13199997-8.72300052 8.41800118-12.85500002-.61300087-10.5590005-2.44799996-5.96699905-16.68099975-4.89800071-10.40800035-4.89799881-12.0899998-1.37599945-18.97600078 17.44499778 7.49900055 25.25000096-.76600075 6.27499961-8.11100006 6.58100033 6.88700104 13.62099839.15299987z"/><path fill="#C3987B" d="M545.11095858 138.80500698l1.37699985 22.0380001-4.89699983 3.21400071-4.89699984-2.75500011-1.68400002-8.87600029 4.59099985-.153-.15199995-13.31499958 5.66199994-.15300083zM566.38295937 159.77200699l-7.19199992-12.39600027-14.079-8.57099974 21.4239998-2.90700054-.15299988 23.87400055zM577.86095858 156.09900951l11.63000011-19.74200058-14.69200039-1.68400001 3.06200028 21.4260006z"/><path fill="#C09C84" d="M591.63395882 158.39500618l-63.355999 3.36700058 19.43499947 29.53700066 7.34599972 1.83600044 17.13899994-9.02800083 20.04799938-1.2249999-.61199951-24.48700095z"/><path fill="#A77E62" d="M546.48895717 160.84300995l1.68299985 24.63999939 5.96899986 2.296 5.35599995 14.84399939-20.35399962-13.77299929-7.80400038-19.13100004-.15399933-3.67300034-2.90799999-4.28499984 8.41799975-.45899964 9.7939999-.45899963z"/><path fill="#8B6651" d="M572.19795704 184.10600567l-27.08799934 1.52999973 14.38499969 16.98799992 12.70299965-18.51799965zM536.69495821 161.3020091l-5.35600007 8.41800023-3.06200015-7.95800019 8.41800022-.46000003zM566.38295984 159.77200556l6.12099985 3.82599997 5.35699984-4.43799996-5.66399984-.306-5.81399985.91799999z"/><path fill="#474747" d="M545.1109562 138.80500567l20.35400008 4.74599993-.15299987-5.6639998-8.11100018-.30599999-12.09000004 1.22399986zM577.40096092 143.39700651l-.30599975-6.42700004 5.50899994-1.0710001 6.88699996.4590001-12.09000015 7.03900004zM539.4489584 138.95800853l.15100002 13.31499982-4.59000015.15400028-1.2249999-6.42799997-10.40600014 3.67299985-7.49700022-18.51900005 13.6190002 1.37699986 9.94800019 6.4280002z"/><path fill="#8B6651" d="M526.90095854 151.66100812l3.97799992-1.22399998 2.14199996 7.65199995-6.11999988-6.42799997z"/><path fill="#9E7700" d="M538.9899578 115.08400726l-8.7229998-.30599975-7.80500007 1.37799978-3.67300033 6.58099994-2.9069996 8.41699973 14.691-9.18199974 8.4169998-6.88799996z"/><path fill="#856400" d="M522.46195984 116.15600777l22.8029995-10.71300018 20.1999998-6.8870002 23.72099972 14.69300031-27.54599952 2.2949996-22.64999962-.45899963-7.34500122.45899963-9.18299866.61200047z"/><path fill="#BF8F00" d="M565.4649582 98.55600739l-35.19700051.61200046-7.80700112 16.98799992 43.00400162-17.60000038z"/><path fill="#E5C828" d="M538.9899578 115.08400822l61.97800065-2.29500008.91900063 23.1079998-24.79200077 1.07299996-6.12199998-7.65299964-5.66100002 8.57099986-25.86300087 1.0710001-1.22599983-13.77300006.7670002-10.10199994z"/><path fill="#474747" d="M545.72295856 120.4410081l22.80200005-.91799975-7.49900007 12.24300003-14.99700022.45899963-.30599976-11.78399992zM595.76496029 118.4520073l-22.80200005.76599979 8.4159999 11.63000011 14.99799966-.45800018-.61199951-11.93799973z"/><path fill="#CCAD14" d="M539.4499588 138.95900726l-23.5680008-7.8050003 23.10800076-16.06900025.46000004 23.87400055z"/><path fill="#E8CAB6" d="M570.97395986 129.31700611l6.12099988 7.65199947.76600027 22.1920004-11.47800017.6119995-1.07000017-21.88599967 5.6610002-8.5699997z"/><path fill="#8B6651" d="M581.22795773 167.42500639l-23.26199913-.15299988 7.03899955 9.18200016 11.01999998-.15299988 5.2029996-8.8760004z"/><path fill="#FFF" d="M578.62595844 168.64801073h-17.29400062l4.74500036 6.27600002 9.02699995-.306 3.52200031-5.97000002z"/><path fill="#2B2B2B" d="M584.8699599 144.70800924c1.55600004.09500003 2.73900001 1.43299997 2.64499991 2.98799992-.09500003 1.556-1.43299997 2.74-2.98899992 2.64499998-1.55499999-.09500003-2.739-1.43299997-2.64399997-2.988.09500002-1.55600003 1.43299996-2.73999993 2.98799999-2.6449999zM560.51095875 146.36600637c1.55600004.09500003 2.739 1.43499995 2.6449999 2.98999991-.09500003 1.55500005-1.43299997 2.73800002-2.98899992 2.643-1.55499999-.09500004-2.739-1.43299998-2.64399997-2.988.09500002-1.55600004 1.43200004-2.73999993 2.98799999-2.6449999z"/></g><g display="block"><path fill="#C3987B" d="M614.74196792 219.30399895l5.2019999-13.46699953-4.13100004-8.56899977-7.65100003 9.02799964-1.37799978 6.42900014 7.95799995 6.57899952zM581.37896729 231.54799986l10.56100004-21.27199984 9.79300005-.61299991-.15299988 7.80599975-5.20300007 21.42399979-14.99800014-7.3449998z"/><path fill="#8B6651" d="M591.93996716 210.27499914l16.22200012-3.97900009 6.57999992 13.00800037-13.16100001-1.83599996-9.64100003-7.19300032z"/><path fill="#C4C4C4" d="M595.45996809 178.44400024l-2.44899988 9.18200016-7.95800018 4.89600015 6.88700008 17.75400043 16.22200012-3.97800064 7.65100002-9.02999974-2.44799995-13.62100029-8.11199999.15200043-9.79300022-5.3550005z"/><path fill="#A3A3A3" d="M591.9399681 210.27499986l8.72300006-4.4380002 7.49900007.4590001-16.22200012 3.9790001z"/><path fill="#F4D75D" d="M587.95996761 199.86799955l8.10999966-3.21300006-.30499983-6.4280002 10.40600014-3.82600022 3.21399975 5.35700035 5.20300054-1.83599997.61199951 3.67199994-4.5909996 1.83700007.61199951 7.19300014-10.55899977 3.2130003-3.36699987-5.5090003-7.95699978 3.36599969-1.37800026-3.82599974z"/><path fill="#B58B00" d="M599.59096718 192.36900091v5.35599995l3.36699998 4.89900017 5.6609999-2.14300013-1.22300005-6.2750001-2.60199988-3.8260002-5.20299995 1.98900031z"/><path fill="#A3A3A3" d="M585.05196762 192.52200031l10.7119999-2.29500007-.30499983-11.783-3.21400011 4.43700004-7.19299996 9.64100003z"/><path fill="#DDDDDC" d="M595.45996857 178.44400024l10.7109996 7.95800019 7.19299973-2.75400007-17.90399933-5.20400012z"/><path fill="#F4D75D" d="M597.37296677 179.05400038z"/></g><g display="block"><path d="M494.30301666 318.4739908l51.42000294-11.63200033 81.87300396 10.8660003-66.57000373 13.92699992-66.72300317-13.1609999z" opacity=".1"/><path fill="#856400" d="M587.34902 262.46099281l1.22499943 35.81100083-7.19399929 3.67300033-13.16000032 3.97999955-11.17199946-25.86400033 10.2529993-10.10000038 20.04800034-7.5z"/><path fill="#8D7C2F" d="M565.46501255 299.49699405l22.95499992-7.19199994.15299988 5.96699994-7.8039999 6.1219998-12.54899979 1.53100014-2.75500011-6.42799994z"/><path fill="#755800" d="M588.57301664 298.27299118l13.61999941 15.60999966-16.06899953 1.83599949-17.9049995-1.8359995v-7.95800006l20.35399962-7.65199959z"/><path fill="#BC8F2D" d="M568.15801239 313.88299417l34.07300186-.05699992.00699997 3.7019999-34.07300186.056-.00699997-3.70099998z"/><path fill="#9E7700" d="M557.0480156 280.06199121l-11.32399941 26.78099967-5.20299989.91900062-18.05899924.30599976 3.82499885-43.77000046 19.74200058 1.53100014 11.0189991 14.23300027z"/><path fill="#BF8F00" d="M587.34901619 262.46199131l-30.30100013 17.60000038-30.76100015-15.76400041 18.9779997-1.6830001 42.08400058-.15299987z"/><path fill="#856400" d="M585.51301575 253.58699226l-14.69099999-.15299987-8.26499986-.15500021-35.65599966-.91799975-.61400033 11.93799973 36.88199997-1.0710001 8.26399994-.30599976 15.91600037-.4590001-1.83600044-8.87599994z"/><path fill="#CCAD14" d="M562.5570178 253.27899265l.61200023 9.94799996 8.26400018-.30499983-.6110003-9.48900032-8.2650001-.1539998z"/><path fill="#755800" d="M545.72401714 306.84299135l3.36600018 8.72399998-28.92399979.61199999 2.29599953-8.11100006 15.15100026-3.9790001 8.11099982 2.7540002z"/><path fill="#CCAD14" d="M520.16601753 320.00499177l29.07600022.15200019-.15100003-4.59000015-28.92500019.6120001v3.82599986z"/><path fill="#BF8F00" d="M548.4770174 300.1099937l-25.25-.76600004-.76600075 8.72399998 23.26200009-1.2249999 2.75400066-6.73300004z"/><path fill="#9E7700" d="M580.92101896 277.30699253l7.04000008 4.28499997.30700016 6.12100017-8.87700033 1.68400001-3.3670001-13.4680004 4.89700019 1.37800025z"/><path fill="#B58B00" d="M587.65501928 273.32699347l.30599976 8.26599979-11.93599987-5.66399992 11.63000011-2.60199987z"/></g><g display="block"><path fill="#E5C828" d="M544.3449707 239.20000648l-17.13999986 7.34700013-8.72199965-21.88500023 19.58799982-1.53100014 6.12200022 7.65100002.15199947 8.41800022z"/><path fill="#DFBDA5" d="M559.80197239 220.83500767l-21.73099995 2.29599952 6.2739997 16.0699997 18.671-8.11099958 1.22299957-5.05200005-4.43699932-5.2029996z"/><path fill="#8B6651" d="M559.80196953 220.83600616l20.35400009-10.25400018-13.16199994-1.37799978-7.19200015 11.63199996z"/><path fill="#C3987B" d="M563.01597118 231.08900642l18.36299992.45899964-1.53099966-14.69099975 6.2750001-7.80499959-1.98900033-4.28600025-24.33300018 16.06899977 3.21500015 10.25400018z"/></g><g display="block"><path fill="#755800" d="M778.18303108 318.62801671l-.3060007-4.43900013 11.47800025-1.99 10.40599957 2.143.3060007 4.59300005-21.88399982-.30699992z"/><path fill="#B58B00" d="M788.74303403 301.64001274l-4.13200011 1.98999977-6.73300028 10.55900002 21.88400078.15299988-4.89800024-10.40599967-6.12100015-2.296z"/><path fill="#737373" d="M778.4890318 283.42801762l-6.73299981 6.8869996 11.3249999 15.76300001 11.7829999-2.1420002-3.67299986-18.36499976-12.70200014-2.14299965z"/><path fill="#4F5253" d="M750.17703128 302.2510147l9.79500031-13.61899995-8.26400041-5.51100015-11.17199946 1.68500041-1.99000072 15.3029995 4.59200048 4.28600025 7.0389998-2.14400005z"/><path fill="#737373" d="M744.05703354 250.21901703l12.39599955 10.2539997 13.46599996 17.29199983-9.94700003 10.86599922-19.43499994-3.82499981 3.52000046-34.58699894z"/><path fill="#B58B00" d="M725.23303223 311.89401674l13.31300014-11.7840004 11.6310001 2.1420002-.45900059 10.10099984-9.4869995 2.44900036-14.99800015-2.908z"/><path fill="#755800" d="M725.23303223 316.94301438v-5.05000019l24.48399925.45900011-.15199947 5.20300007-24.33199978-.61199999z"/><path fill="#8F8F8F" d="M757.83003235 271.64501548l13.92500019 18.67000031 19.43500042-4.74399948-3.67199993-21.88400078-3.2140007-11.17199993-6.42699957-6.42800045-12.39699984 10.86600018-7.65000057 14.69200015z"/><path fill="#4F5253" d="M750.7900343 244.25001621l-6.73400021 5.96899987 13.77299976 21.42599964 19.58899975-24.9460001-13.61999965-3.5199995-13.00799966 1.0710001z"/></g><g display="block"><path fill="#D0AF96" d="M736.25301456 221.90699577l13.92599965-7.95800018-6.12099982 36.27000046-7.80499983-28.31200028z"/><path fill="#ECECEB" d="M747.27101421 201.24599457l5.6619997 25.40399933-16.6819992-4.74399948 11.0199995-20.65999985z"/><path fill="#A3A3A3" d="M747.27101326 201.24699402l-3.2139988 48.97299957 33.36100007-3.52000046 7.19400024-1.22399902 5.20299912-20.35500097-1.98900032-35.50400019-13.46799946-3.21500015-20.04699993 2.90800094-7.04000092 11.93700028z"/><path fill="#2B2B2B" d="M781.85701478 243.33299637l6.1220001-16.52900016-14.99800015-15.15100015 8.87600005 31.6800003z" opacity=".1"/><path fill="#ECECEB" d="M754.31101513 189.30999422l11.7819997-5.2029996 8.26399983 2.2949996-15.30299998 14.38699962-4.74299955-11.47899962zM787.67301548 227.87599373l-14.69200027-16.22199917 14.84400026-22.03799915 14.84600027 35.96299934-14.99800026 2.29699898z"/><path fill="#D0AF96" d="M790.73301518 249.91399384l11.9379996-24.33399964-16.22199964.91899967-4.59199953 16.83400011 4.28499937 6.58099986h4.5910002z"/><path fill="#EFD3C2" d="M787.51901579 263.68699455l3.3670001-14.0800004-8.87600016-5.96799993-4.59200025 3.06100034 10.1010003 16.987z"/></g><g display="block"><path fill="#A9846C" d="M751.5570383 176.45498991l15.6079998-3.97899961-12.85400008 16.83399963-2.75399971-12.85500002z"/><path fill="#D0AF96" d="M756.6070404 114.31999207l-7.80599975 31.5250001 2.75499916 30.61000012 10.4060011-1.07100105-7.65100003 13.9260025 20.35399961-2.90800094 22.95599985-41.01600075-4.5909996-21.88400078-26.62800026-11.47800064-9.79500007 2.29600144z"/><path fill="#EFD3C2" d="M728.44804 157.4769926l5.20299996-18.67099952 1.83700001 11.63300002-1.2249999 9.18299996-5.81500006-2.14500045z"/><path fill="#EFD3C2" d="M733.34504128 124.72699356l11.78399956-12.3959999 13.92599952 1.3769989-7.4989996 62.74700164-16.83399963 1.52999878-1.37699985-53.25799942z"/><path fill="#4F5253" d="M724.31604004 113.86099243l9.02899933 10.8670001 23.72000026 5.96899987 10.10099984 19.58899927 5.35599994-8.2649994 7.19199944-24.33199977-6.88500023-21.4269991-28.92499924 17.29299928-19.58799934.30599975z"/><path fill="#737373" d="M772.82903862 96.2619934l-.30700016 45.75799943 17.1389997-4.13199997 9.94699979-13.77299976 4.592-7.49900008-31.37099933-20.35399961z"/><path fill="#4F5253" d="M799.60903835 151.96799564l-15.45700025 17.60099888-7.19300032-14.53899956-4.43799972-13.00999975 31.6800003-25.40499925-4.592 35.35299968z"/><path fill="#737373" d="M724.31604004 113.86099246l32.7489996 16.83499906 15.76500034-34.43399811-48.51399994 17.59899905z"/><path fill="#A9846C" d="M743.44503975 163.44498968l-9.02799988 2.297v2.295l9.48600006-2.907-.45800018-1.685z"/><path fill="#D0AF96" d="M738.85503981 136.81699371l5.3549998 1.0710001-6.73399984 7.34700036-3.21199978 14.3860004-.61199999-20.81500054 5.20299981-1.98900032z"/><path fill="#4F5253" d="M733.6510396 136.05199337l10.25300026-1.07099998.30700016 2.908-10.56000042.91799998v-2.755z"/><path fill="#A9846C" d="M772.0630383 161.45599365l-4.59199996-5.20200008 5.20399997-3.52000004 4.28399995 2.29500008-4.89599996 6.42700004z"/><path fill="#EFD3C2" d="M766.70704126 141.86799335l.76399994 14.38599968 9.48899985-1.2249999 1.68300008-12.85500002-11.93599987-.30599976z"/><path fill="#A9846C" d="M770.68504119 145.3869946l4.4380002-.15199995-4.4380002 5.5079999v-5.35599995z"/><path fill="#2B2B2B" d="M737.63004017 143.85699224c1.26900005 0 2.296 1.02699996 2.296 2.296 0 1.26699997-1.02699995 2.29600001-2.296 2.29600001-1.268 0-2.296-1.02900004-2.296-2.296 0-1.26900005 1.028-2.296 2.296-2.296z"/></g><g display="block"><path fill="#FFF" d="M188.23300004 194.81899405l-6.88600016 3.0610001 3.51900008 1.98900009 3.36700008-5.0500002zM187.16200004 178.13699365l-2.9080001 3.062 5.66200019 2.142-2.7540001-5.204zM197.10900044 196.6539936l1.98900003 7.5 3.21499997-3.21499997-5.204-4.28500002zM191.29500005 200.63199258l-2.9089999 7.19399977 4.89799977-1.52999998-1.98899987-5.6639998z"/></g><g display="block"><path fill="#4F5253" d="M327.18899727 158.08899069l-6.58100021-1.98899985-5.20300019 17.90600014 6.42700023 1.98999977 5.35700017-17.90700006z"/><path fill="#858686" d="M308.82399654 155.64099121l28.46500016 8.26500034 1.3760004 14.53900052-33.05400085-9.03100038 3.2130003-13.77300048z"/><path fill="#6F7173" d="M338.66599655 178.44399047l-7.65100002 2.602-30.14899922-7.80600012 2.75399971-4.28499996 3.21399975-.45900011 31.83199978 9.94800019z"/><path fill="#4F5253" d="M310.6609974 188.695992l4.74300002-14.69000006 6.42700005 1.99000024-4.28500009 15.1500001-3.82500005 1.98799992-3.05999994-4.4380002z"/><path fill="#6F7173" d="M308.8239975 155.64099121l-3.06100011.45900059-4.43799996.76499939-.45900012 16.3760004 5.9690001-4.74500036 1.98900009-12.85500002z"/></g><g display="block"><path fill="#9E7700" d="M306.52801514 110.0359912l9.02900004-11.63199998 15.15100026 9.79500008-11.17200017 1.8369999h-13.00800013z"/><path fill="#BF8F00" d="M330.70801449 108.19899035l22.49599933 14.69200038-30.75999927-7.95800018-15.91599941-4.89699983 24.17999935-1.83700037z"/><path fill="#755800" d="M353.20401382 122.89099073l-38.4119997 1.37700034-8.26399898-14.23200035 46.67599868 12.85500001z"/></g><g display="block"><path fill="#E5C828" d="M297.8059969 184.10699463l-26.47499943 11.17199898-8.87600136 48.51299858-2.44799996 9.02899933 45.6040001-5.20299912 11.17200088 1.07100105-.91800117-8.5699997-18.05899907-56.01199912z"/><path fill="#BF8F00" d="M310.66099882 188.69699574l-12.85599995-4.59000111-1.98999977 34.74000168 6.73399985-.7650013 5.66200006-16.83499955 2.44999981-12.54999972zM315.8639965 240.11899352L279.593997 223.437994l-16.22099972 9.94699955-3.82600021 19.8949995.22800064 5.23500062 45.83600044-9.67199993 11.01799965-1.99100018-.7650013-6.73300004z"/><path fill="#2B2B2B" d="M284.49199724 238.12999594l-9.48899984 8.41700018-14.84400082 3.67299938 1.22400093-6.12099934 17.1399994-15.45699978 18.82299995 4.74299956 18.51799965 6.73400002-31.37199927-1.98900002z" opacity=".2"/></g><g display="block"><path d="M350.75698853 318.47401237l-52.18600274-9.48900032-81.10800361 8.7230003 68.71300316 15.15100025 64.58100319-14.38500023z" opacity=".1"/><path fill="#856400" d="M257.71098137 262.46101189l-1.22499943 35.81100082 7.19299984 3.67300034 13.31399965 3.97999954 11.01899958-25.86400032-10.25399971-10.10000038-20.04699993-7.5z"/><path fill="#8D7C2F" d="M279.5949812 299.49701312l-22.95499993-7.19199994-.15299988 5.96699995 7.8039999 6.1219998 12.70199967 1.53100014 2.60200023-6.42799995z"/><path fill="#755800" d="M256.48698115 298.27201462l-13.6209991 15.60999965 16.06899918 1.8359995 18.05899918-1.8359995v-7.95800006l-20.50699926-7.6519996z"/><path fill="#BC8F2D" d="M276.91698456 313.88300943l-34.07400131-.05699992-.00600052 3.7019999 34.07300186.056.00699997-3.70099998z"/><path fill="#9E7700" d="M288.01298523 280.06101465l11.47799969 26.78099966 5.04900014.91900063 18.0569998.30599975-3.8249998-43.77000045-19.7420001 1.53100013-11.01699973 14.23300028z"/><path fill="#BF8F00" d="M257.71198082 262.4620123l30.30100068 17.60000037 30.7590007-15.76400041-18.97700024-1.6830001-42.08300114-.15299987z"/><path fill="#856400" d="M259.54798126 253.27801275l13.61999989-1.52999997 4.43800068 2.90699995 3.82599973-3.97899974 35.19800043-3.8249998 2.1420002 17.44599914-36.72800064-1.2239995-3.52000046-2.44899988-4.74399948 2.296-16.06800079-.45900011 1.83600044-9.18300009z"/><path fill="#CCAD14" d="M281.4319837 250.6770134l.61200024 12.3959999-8.26400018-.15299987-.61200023-11.17199993 8.26400018-1.0710001z"/><path fill="#755800" d="M299.33698368 306.84301424l-3.36699963 8.72399998 28.9239998.61199999-2.29599954-8.11100007-15.15100026-3.97900009-8.11000037 2.75400019z"/><path fill="#CCAD14" d="M324.89398003 320.00501466l-29.07799912.15200019.15499973-4.59000016 28.92299939.61200011v3.82599986z"/><path fill="#BF8F00" d="M296.5819807 300.10901332l25.25100041-.76600003.76500034 8.72399997-23.10800075-1.2249999-2.908-6.73300004z"/><path fill="#856400" d="M313.10997963 281.89701366l6.88599968-3.8249998 1.37699985 16.37599992-14.99699974 1.22199965-4.89699936-15.60899973 11.63099957 1.83599996z"/><path fill="#B58B00" d="M319.99698353 278.07001472l-5.81499982 7.34800004-12.70299983-5.35800004 18.51799965-1.99z"/></g><g display="block"><path fill="#DFBDA5" d="M240.41700363 137.42999649l1.14799881 13.7659998.68899918 8.27200007 5.05000114 20.5070002 17.90499973 2.29599953 9.6409998 7.34700013 12.85499954-1.8369999 10.10000038-3.67300033 4.13299942-17.14199925 3.82500077-10.86500042 3.51999855-12.54900009-.61199952-18.97599983-16.52799987 9.33399963-9.96399927-6.13500023-22.32599974.62600136 1.53100014 7.74899864-2.0180006-8.30900001-19.09899998 1.25.15000152 8.3390007z"/><path fill="#C3987B" d="M285.98100138 130.48199463l1.41799974 26.53700066 5.2030001 2.7550001 4.74399993-3.2140007.61299991-9.0289997-4.43799984.30600002-1.378-13.31500042-6.16199984-4.03999996z"/><path fill="#C3987B" d="M267.50500107 158.08999634l5.96800017-13.00800038 13.00900006-10.10000038-21.57999992-.46000004 2.60299969 23.5680008zM255.87500238 155.64199638l-13.77399969-18.21199941 14.38599968-3.3659997-.61199999 21.57799911z"/><path fill="#C09C84" d="M242.25400352 159.46799469l63.50999833-3.36700058-7.95899964 28.00699997-8.26299953 3.36700058-7.19299984 2.60099983-11.01900006 5.20499993-3.67199993-8.11200047-3.21500015-4.13399982-20.04700088.7670002-2.1419983-24.33399964z"/><path fill="#A77E62" d="M287.40000343 157.01799393l1.07000017 24.79399967-5.81500005 2.908-1.0699997 6.7340002 3.05999947 6.57999897 13.16000032-13.92599917 5.66400004-19.89599943-.15400028-3.67200088 2.44799995-4.43999863-8.41599965.45899963-9.94700027.45899964z"/><path fill="#8B6651" d="M264.44300365 183.03599548l27.08799935-1.37699985-6.8869996 16.37499952-6.88700008 1.68499994-6.42700006-4.43899965-6.8869996-12.24399996zM297.34700012 156.55899835l6.12100017 7.65300011 2.2950002-8.11200046-8.41600037.45900035zM258.16900444 166.96599722l20.81299973 1.83700003-.15299988 1.99100004-20.81299973-1.83700004.15299988-1.99100003zM267.5050025 158.0899942l-5.66299985 4.43799996-5.81499984-3.8260001 5.81499984-.76400006 5.66299985.1520002z"/><path fill="#474747" d="M286.48200417 134.98099542l-19.74200058 6.888-.30599976-5.50999998 7.80500007-1.22399998 12.24300027-.15400004zM254.95600367 142.93899465l-.46000004-6.42700005-5.66299993-.45900011-6.73299998 1.3770001 12.85599995 5.50900006z"/><path fill="#474747" d="M292.14400196 134.52199376l1.3760004 13.31500041 4.43900013-.3060007.61100007-6.57999993 10.71299982 2.6010003 5.5090003-19.28300046-12.81400037 1.00500011-20.02399993 1.73200035 10.18999958 7.51599992z"/><path fill="#8B6651" d="M306.0700059 145.8469932l-4.13199998-.91799997-1.22399997 7.95800018 5.35599994-7.0400002z"/><path fill="#9E7700" d="M287.15399933 108.80099487l11.56900024.77599955 7.80600024.45900011 4.43599939 6.2750001 3.82700062 7.95800018-29.88000107 3.16299963-.730999-15.9119997 2.97299958-2.71899987z"/><path fill="#856400" d="M306.5280037 110.03699493l-23.72000027-8.11099982-20.81299973-4.74399972-22.0369997 17.1399994.29600143 14.63800048 45.50399876-1.63800049.33399963-16.79699993 4.06099987.27700043 7.34600067-.30600024 9.02899933-.4590001z"/><path fill="#BF8F00" d="M261.9960041 97.18099546l35.04400063-3.06100034 9.48800087 15.91600036-44.5320015-12.85500002z"/><path fill="#E8CAB6" d="M259.85300326 128.4009943l-5.35600018 8.11100006 1.5300002 22.19099999 11.47800017-.61299992-1.22399997-21.73099995-6.42800022-7.95800018z"/><path fill="#2B2B2B" d="M247.61900398 145.1229949c-1.53599998.25999999-2.572 1.717-2.31100008 3.25300005.26100016 1.53599998 1.71800006 2.57100007 3.25400007 2.30999991 1.5359999-.25999999 2.57099998-1.71499991 2.31000006-3.25199988-.25999999-1.53699991-1.71600008-2.572-3.25300005-2.31100008zM272.01600334 144.17299485c-1.53599998.26-2.572 1.71699989-2.31100008 3.2529999.26 1.5359999 1.71800006 2.57000006 3.25400007 2.31000007 1.5359999-.26 2.57099998-1.71700001 2.31000006-3.25300005-.25999999-1.53699992-1.71600008-2.57100007-3.25300005-2.30999992z"/><path fill="#E5C828" d="M290.15400505 110.80099487l-61.9790001 4.28499985 1.52999879 23.11100006 24.7920003-1.68400001 5.35600018-8.11099983 6.58100009 7.95799995 25.70899915-1.8369999-.15299987-13.77500009-1.83599854-9.94700003z"/><path fill="#474747" d="M284.03200436 116.7689948l-22.80200005 1.53100015 8.72299957 11.3249998 14.99699974-1.0710001-.91799926-11.78499984zM233.99000263 120.28999424l22.80200005-1.68400002-7.19199991 12.39700032-14.8449998 1.0710001-.76500034-11.7840004z"/><path fill="#CCAD14" d="M292.14299965 134.52199554l22.64900017-10.25300002-24.6380005-13.4690001 1.98900033 23.72200012z"/></g><g display="block"><path fill="#CCAD14" d="M255.56799126 212.7259922l-4.4369998 3.2130003 3.97799992 6.42800015 8.2639997 11.0170005-2.14199972-14.3840003-1.68400001-5.35600043-3.9790001-.91800022z"/><path fill="#4F5253" d="M280.6669941 218.07999325l-5.66400028 28.467-13.62000012-2.44799995 5.6630001-28.9260006 13.6210003 2.90700055z"/><path fill="#CCAD14" d="M322.13898754 217.62199402l6.57999992-22.4960003-18.05900001-6.42899894-8.11100006 29.38399887 7.65299988 4.74399948 11.93700027-5.20299911z"/><path fill="#E5C828" d="M298.11199284 234.76199532l17.75199985 5.35599994 6.27400017-22.49600029-19.58900023.45800019-5.35500002 8.26499986.91800023 8.4170003z"/><path fill="#DFBDA5" d="M280.66599178 218.08099365h21.88399983l-4.43799973 16.6819992-19.58899975-6.12099957-1.6829996-4.74500012 3.82599925-5.8159995z"/><path fill="#C3987B" d="M278.5239892 228.6419921l-15.1500001 4.7420001 1.52899981-12.24200035 2.1420002-5.9679997 5.3569999-.61200046 8.26399991 3.51800013-2.14199972 10.56200027z"/><path fill="#8B6651" d="M263.37299156 233.38399315l-5.96799993-8.56900013-1.8369999-12.09000027 5.50999985-.15299988 5.96799984 2.60100031-3.67299986 18.21099997z"/><path fill="#C3987B" d="M237.5109911 220.37699366l-8.72399974-4.59099985-1.52999997-9.02900004 7.65199995 5.3549999 2.60199976 8.26499999z"/><path fill="#737373" d="M284.64498901 198.03299284l-53.25600052-11.17199945-2.4489994 9.64199972-1.68300056 10.2539997 53.4090004 11.32399989 3.97900008-20.04799986z"/><path fill="#4F5253" d="M231.38898897 186.86099339l-7.3460002 5.66200017-1.37699985 3.6739998-.15300035 3.51999997 4.7440002 7.03999996 4.1320002-19.8959999z"/><path fill="#474747" d="M224.0429914 192.52299356l-7.65199995-1.68300008.61199999 3.98100012 2.143 4.13200003 3.36699999.7650001 1.52999997-7.19500017z"/><path fill="#737373" d="M216.39199042 190.839993l-6.27399993-1.37799978.30599976 3.67299986 2.4480002 4.43900013 6.27399992 1.37799978-2.75399995-8.11199999z"/><path fill="#474747" d="M210.11699045 189.46299362l-6.12100017-1.37699985.91800022 3.97999996 1.68299997 4.1310001 6.27500021 1.37699985-2.75500023-8.11100006z"/><path fill="#737373" d="M203.99599075 188.08599353l-5.96999979-1.22500014.61299968 3.67300021 1.98900008 4.43900001 5.9699998 1.22400022-2.60199977-8.1110003z"/><path fill="#474747" d="M198.02699065 186.86099386l-5.96800017-1.37700033 2.60100019 8.11000013 5.81500017 1.22600031-2.44800019-7.9590001z"/><g><path fill="#C3987B" d="M263.37399006 233.38399458l-15.76300025-22.34400034-9.79500032.46000004-.30599975 8.8760004 8.72399998 19.59000015 17.14000034-6.58200025z"/></g><g><path fill="#8B6651" d="M247.60999107 211.04099369l-9.94700004-2.60099983-10.40700005-1.68300009 10.25300005 13.61999989 10.10100004-9.33599997z"/></g><g><path fill="#DFBDA5" d="M247.60999107 211.04099417l-4.89699983-11.32299996-13.16100025-3.98099994-2.296 11.01999998 20.35400008 4.28399992z"/></g><g><path fill="#4F5253" d="M278.2749877 202.56399268l-12.8499999-2.55199999-.37799979 1.90200001 12.8499999 2.55199999.37799979-1.90200001z"/></g><g><path fill="#4F5253" d="M277.54098654 206.06899431l-12.8499999-2.553-.37799979 1.903 12.85099983 2.551.37699986-1.901z"/></g><g><path fill="#4F5253" d="M276.8769927 209.52799395l-12.8499999-2.553-.37799978 1.903 12.8499999 2.55099999.37799978-1.901z"/></g></g></g></svg>